<?xml version="1.0" encoding="UTF-8" standalone="no"?>
<!-- Created with Inkscape (http://www.inkscape.org/) -->

<svg
   width="210mm"
   height="297mm"
   viewBox="0 0 210 297"
   version="1.1"
   id="svg1"
   xml:space="preserve"
   inkscape:version="1.4 (86a8ad7, 2024-10-11)"
   sodipodi:docname="dibujo.svg"
   xmlns:inkscape="http://www.inkscape.org/namespaces/inkscape"
   xmlns:sodipodi="http://sodipodi.sourceforge.net/DTD/sodipodi-0.dtd"
   xmlns="http://www.w3.org/2000/svg"
   xmlns:svg="http://www.w3.org/2000/svg"><sodipodi:namedview
     id="namedview1"
     pagecolor="#505050"
     bordercolor="#eeeeee"
     borderopacity="1"
     inkscape:showpageshadow="0"
     inkscape:pageopacity="0"
     inkscape:pagecheckerboard="0"
     inkscape:deskcolor="#505050"
     inkscape:document-units="mm"
     inkscape:zoom="0.65477694"
     inkscape:cx="397.08179"
     inkscape:cy="439.08083"
     inkscape:window-width="1920"
     inkscape:window-height="974"
     inkscape:window-x="-11"
     inkscape:window-y="-11"
     inkscape:window-maximized="1"
     inkscape:current-layer="layer1" /><defs
     id="defs1" /><g
     inkscape:label="Capa 1"
     inkscape:groupmode="layer"
     id="layer1"><path
       style="fill:#000000"
       d="M -1.3084976,149.91836 V 1.673472 H 103.85203 209.01257 V 149.91836 298.16325 H 103.85203 -1.3084976 Z M 185.38676,279.51986 c 2.73087,-0.76216 4.8266,-2.76777 5.52979,-5.29198 0.18117,-0.65034 0.22719,-7.10169 0.18311,-25.67262 l -0.0589,-24.80399 -0.547,-1.09605 c -1.00776,-2.01928 -3.05804,-3.63884 -5.30666,-4.19183 -0.68769,-0.16912 -6.393,-0.21317 -22.28941,-0.17209 l -21.36515,0.0552 -1.36859,0.63324 c -1.53666,0.711 -2.90809,2.0013 -3.68051,3.46278 l -0.48765,0.92268 -0.10269,24.90051 c -0.0869,21.07877 -0.058,25.07628 0.18879,26.04576 0.39321,1.54491 1.67323,3.26658 3.10144,4.17156 2.20303,1.39593 0.6553,1.31047 24.04093,1.32739 18.65741,0.0135 21.19203,-0.0197 22.16246,-0.29057 z m -44.15344,-2.48431 c -1.12193,-0.5533 -1.85989,-1.2688 -2.49764,-2.42162 l -0.48054,-0.86862 v -24.80399 -24.804 l 0.55698,-0.8904 c 0.30633,-0.48973 0.88744,-1.16309 1.29134,-1.49638 1.52101,-1.25506 0.14561,-1.18422 22.99188,-1.18422 23.32035,0 22.17775,-0.0661 23.84691,1.37984 0.492,0.42621 1.1071,1.18044 1.36689,1.67607 l 0.47235,0.90115 0.056,23.91348 c 0.0605,25.81195 0.0815,25.24914 -1.00088,26.80092 -0.63784,0.91446 -2.00257,1.83292 -3.06556,2.06311 -0.59958,0.12984 -8.16495,0.19753 -21.76625,0.19475 l -20.84726,-0.004 z m 17.86908,-11.68692 c 0.49242,-0.46279 0.52716,-1.10914 0.091,-1.6943 -0.3171,-0.42547 -0.36583,-0.429 -5.91528,-0.429 -4.07823,0 -5.66238,0.0628 -5.84201,0.23163 -0.35876,0.33716 -0.3016,1.51448 0.0935,1.92473 0.31292,0.32496 0.76968,0.35299 5.75097,0.35299 5.13719,0 5.43183,-0.0195 5.82183,-0.38605 z m 22.06795,-0.043 c 0.41084,-0.55124 0.40941,-1.38942 -0.003,-1.77702 -0.28266,-0.26564 -1.34339,-0.30333 -8.53726,-0.30333 -5.26968,0 -8.35692,0.0716 -8.61178,0.19982 -0.49262,0.24777 -0.53466,1.26719 -0.0775,1.88053 l 0.31973,0.429 h 8.29507 8.29507 z m -22.1478,-12.16914 c 0.55354,-0.4092 0.64025,-1.1946 0.19312,-1.74903 -0.26329,-0.32647 -0.69933,-0.35254 -5.86119,-0.35048 -4.00145,0.002 -5.65979,0.067 -5.87077,0.23157 -0.16172,0.12614 -0.29403,0.56123 -0.29403,0.96687 0,1.29977 0.15817,1.33327 6.12014,1.29622 4.7683,-0.0296 5.26473,-0.064 5.71273,-0.39515 z m 21.80494,0.17635 c 0.80628,-0.33 0.87704,-1.85671 0.0995,-2.14799 -0.6287,-0.23553 -15.48622,-0.12515 -15.79715,0.11737 -0.15209,0.11862 -0.27652,0.54756 -0.27652,0.9532 0,1.33843 -0.0633,1.32842 8.19958,1.29666 4.30147,-0.0165 7.49962,-0.10672 7.77455,-0.21924 z M 151.6056,242.0616 c 0.22593,-0.1436 2.24857,-1.98982 4.49476,-4.10269 3.83336,-3.60585 4.07498,-3.87531 3.93728,-4.39091 -0.2137,-0.80018 -0.49314,-1.03405 -1.23556,-1.03405 -0.5776,0 -1.12798,0.4253 -4.37151,3.37798 -2.0409,1.85789 -3.79899,3.37798 -3.90686,3.37798 -0.10788,0 -0.7971,-0.60804 -1.53161,-1.35119 -1.0932,-1.10608 -1.44968,-1.35119 -1.96506,-1.35119 -0.80791,0 -1.2751,0.44579 -1.2751,1.21669 0,0.52019 0.3315,0.91848 2.25073,2.70416 2.38993,2.22364 2.48422,2.26428 3.60293,1.55322 z m 29.59299,-3.43593 c 0.41059,-0.52777 0.36207,-1.19971 -0.11929,-1.65209 -0.3955,-0.3717 -0.68004,-0.38583 -7.65084,-0.37992 -5.37834,0.005 -7.32479,0.0668 -7.5696,0.24203 -0.78931,0.56498 -0.62525,1.72489 0.29163,2.06178 0.24678,0.0907 3.66798,0.15093 7.60265,0.13388 6.82412,-0.0296 7.16739,-0.0483 7.44545,-0.40568 z m -96.794478,0.41532 c 1.81454,-1.3007 1.66321,-4.11997 -0.27163,-5.06028 -1.66782,-0.81055 -3.53359,-0.45512 -4.46122,0.84986 -0.60996,0.85809 -0.65192,2.72307 -0.0811,3.60285 0.8673,1.33662 3.35827,1.65101 4.81392,0.60757 z m 71.558358,-41.66642 c 2.37378,-0.82772 4.0928,-2.38618 5.02488,-4.55556 l 0.47705,-1.11031 V 143.74149 95.774231 l -0.53699,-1.061649 c -1.11343,-2.201331 -2.91117,-3.712773 -5.23631,-4.402425 l -1.41752,-0.420443 -41.92744,0.04685 -41.927438,0.04685 -1.81477,0.868623 c -1.48393,0.710268 -1.99379,1.07827 -2.79674,2.01861 -0.54008,0.632493 -1.18939,1.631409 -1.4429,2.219813 l -0.46093,1.069825 -0.053,46.998405 c -0.0352,31.24149 0.017,47.35558 0.15588,48.06377 0.40495,2.06544 1.92113,4.24371 3.65465,5.25059 0.40124,0.23305 1.29119,0.61998 1.97766,0.85984 l 1.24812,0.4361 41.943548,0.0101 41.94354,0.0101 z m -84.762728,-2.01705 c -2.22902,-0.56531 -3.51509,-1.57951 -4.50458,-3.5523 l -0.53249,-1.06165 V 144.03103 97.318449 l 0.48986,-1.142492 c 0.6244,-1.456269 1.80729,-2.66102 3.28054,-3.341156 l 1.159,-0.535059 h 41.797198 41.7972 l 1.00048,0.480196 c 1.42263,0.682817 2.67852,2.07226 3.19727,3.537276 l 0.4277,1.207869 -0.0534,46.705777 -0.0534,46.70578 -0.47345,0.98288 c -0.61826,1.28347 -2.11791,2.64349 -3.53169,3.20284 l -1.12965,0.44694 -40.87294,0.0368 c -35.497898,0.0319 -41.020838,-7.6e-4 -41.997618,-0.24848 z m 17.45332,-15.74399 c 1.76333,-0.50714 2.7494,-1.06839 4.06872,-2.31586 1.77979,-1.68284 2.78546,-4.09243 2.68396,-6.43081 -0.14502,-3.34132 -1.67609,-6.02802 -4.36649,-7.66222 -3.01017,-1.82845 -6.64641,-1.96689 -9.92669,-0.37794 -2.86996,1.39018 -4.9884,4.77876 -4.9884,7.97928 0,3.44624 1.7743,6.37283 4.84074,7.98444 2.72339,1.43132 4.80022,1.65367 7.68816,0.82311 z m -4.65743,-1.97247 c -1.72417,-0.53011 -3.51789,-1.76754 -4.38009,-3.02169 -1.59164,-2.31515 -1.45714,-5.41859 0.33542,-7.73936 1.39732,-1.80906 3.16811,-2.70787 5.57989,-2.83223 1.63564,-0.0843 1.76589,-0.0594 3.22383,0.61781 2.26451,1.0518 3.64282,2.74468 4.21973,5.18278 0.45953,1.94205 -0.3653,4.27692 -2.08166,5.89262 -1.82701,1.71985 -4.81027,2.5417 -6.89712,1.90007 z m 47.523268,-0.53843 c 0.34909,-0.27227 0.34342,-1.59739 -0.008,-1.87149 -0.22228,-0.17336 -15.75057,-0.29554 -28.20901,-0.22193 -1.36101,0.008 -1.45893,1.95795 -0.11762,2.34203 0.14107,0.0404 6.51413,0.0477 14.16237,0.0163 9.54193,-0.0392 13.98948,-0.12234 14.17227,-0.26492 z m 11.35755,-7.8816 c 0.4728,-0.44433 0.52158,-1.10121 0.11883,-1.60024 -0.26468,-0.32795 -1.29776,-0.34534 -20.2759,-0.34133 -18.62395,0.004 -20.01463,0.0269 -20.25374,0.3342 -0.37821,0.48609 -0.3128,1.16863 0.15404,1.60737 0.40508,0.3807 0.68464,0.38606 20.12839,0.38606 19.44374,0 19.7233,-0.005 20.12838,-0.38606 z m -55.026538,-16.3749 c 4.71085,-1.0596 7.58107,-4.4282 7.58107,-8.89745 0,-3.869 -2.67775,-7.28406 -6.68582,-8.52674 -1.75978,-0.5456 -3.28901,-0.63686 -4.86746,-0.29046 -4.72192,1.03622 -7.74159,4.47682 -7.75051,8.83091 -0.009,4.27857 2.85098,7.7116 7.39107,8.87272 1.7144,0.43846 2.42332,0.44026 4.33165,0.011 z m -4.57368,-2.40968 c -5.14573,-2.04634 -6.43054,-7.92875 -2.47936,-11.35157 0.49598,-0.42966 1.50158,-1.04498 2.23466,-1.36738 1.22513,-0.53879 1.46887,-0.57916 3.01507,-0.49931 3.61825,0.18686 6.20007,2.37393 6.96294,5.89835 0.42287,1.95361 -0.79387,4.79877 -2.63445,6.16028 -1.46475,1.08349 -2.4948,1.45472 -4.27952,1.54231 -1.4072,0.0691 -1.8265,0.0122 -2.81934,-0.38268 z m 48.477478,-0.9746 c 0.25218,-0.49452 0.23928,-0.60675 -0.12209,-1.06165 l -0.40408,-0.50867 -14.09712,-0.0496 c -13.87534,-0.0488 -14.10361,-0.0435 -14.50932,0.3378 -0.49515,0.46534 -0.5231,0.92479 -0.0915,1.50391 l 0.32071,0.43031 14.3107,-0.0496 14.3107,-0.0496 z m 14.77871,-6.91718 c 0.35156,-0.33039 0.30475,-1.42326 -0.0763,-1.78136 -0.28934,-0.27192 -2.56412,-0.30333 -21.96527,-0.30333 h -21.6425 l -0.31973,0.429 c -0.40928,0.54915 -0.40804,1.19769 0.003,1.584 0.28935,0.27193 2.57077,0.30333 22.03853,0.30333 16.61618,0 21.77364,-0.0544 21.96223,-0.23164 z M 88.794872,125.76126 c 3.16174,-0.94786 5.49495,-3.26996 6.33647,-6.30631 0.57124,-2.06112 0.20796,-4.96431 -0.84973,-6.79065 -0.67692,-1.16885 -2.45269,-2.9077 -3.62655,-3.55114 -1.04193,-0.57113 -3.64122,-1.27473 -4.70921,-1.27473 -3.95664,0 -7.90878,2.60797 -9.23571,6.09453 -1.25276,3.2917 -0.4547,6.75123 2.14415,9.29473 2.8497,2.78902 6.22172,3.64845 9.94058,2.53357 z m -4.24965,-1.97989 c -1.56699,-0.32335 -2.77673,-0.95883 -3.91378,-2.05592 -3.30776,-3.19152 -2.69106,-7.85347 1.38262,-10.45184 1.31997,-0.84194 2.2219,-1.11627 3.67488,-1.11777 2.79595,-0.003 5.60583,1.80548 6.74671,4.34203 1.24984,2.77881 0.72412,5.09347 -1.68047,7.39885 -1.74952,1.67733 -3.96146,2.34863 -6.20996,1.88465 z m 2.81508,-5.19019 c 2.01514,-1.89383 2.52511,-2.48114 2.52511,-2.90809 0,-0.9391 -0.33539,-1.28173 -1.25463,-1.28173 -0.75741,0 -0.97955,0.13515 -2.55972,1.55736 -1.42346,1.28115 -1.81238,1.53519 -2.19292,1.43239 -0.25441,-0.0687 -0.62083,-0.16633 -0.81425,-0.21687 -0.71551,-0.18695 -1.18876,0.27218 -1.18876,1.1533 0,0.74115 0.0955,0.90087 0.94794,1.58568 1.17448,0.94351 1.3394,1.04441 1.71309,1.04811 0.16446,0.002 1.43533,-1.06494 2.82414,-2.37015 z m 47.130268,4.17695 c 0.21882,-0.18611 0.37561,-0.58442 0.37561,-0.9542 0,-1.2955 0.79022,-1.2357 -16.32864,-1.2357 -17.14933,0 -16.32864,-0.0631 -16.32864,1.25468 0,1.31809 -0.82935,1.25467 16.40952,1.25467 14.13146,0 15.52963,-0.0281 15.87215,-0.31945 z m 12.10111,-7.56779 c 0.48805,-0.56648 0.49797,-1.0262 0.0332,-1.53824 -0.35683,-0.39311 -0.51423,-0.39685 -21.72089,-0.51726 -14.7085,-0.0835 -21.53793,-0.0582 -21.92809,0.0812 -1.15222,0.4117 -1.21701,1.90355 -0.10111,2.32831 0.27226,0.10363 9.31396,0.16109 21.89405,0.13913 l 21.43026,-0.0374 z M 29.053422,160.97838 c 1.02229,-0.71157 1.47379,-1.55706 1.47379,-2.75985 0,-0.82409 -0.11625,-1.2616 -0.46213,-1.7392 -0.80816,-1.11595 -1.46276,-1.4424 -2.833,-1.41279 -2.13962,0.0462 -3.48279,1.20078 -3.48279,2.99371 0,1.62941 0.81399,2.85782 2.15018,3.24489 0.94299,0.27316 2.52797,0.10895 3.15395,-0.32676 z m 7.32745,-41.6394 c 6.6128,-1.68677 11.6024,-6.27157 13.46127,-12.36917 1.16152,-3.81012 0.90737,-8.507973 -0.66232,-12.242623 -1.64523,-3.914371 -4.86585,-7.32228 -8.58842,-9.087861 -5.13481,-2.435399 -10.48697,-2.765286 -15.98186,-0.985064 -2.86225,0.927305 -4.79439,2.000517 -6.76704,3.758769 -2.5954,2.31333 -4.33582,5.078741 -5.42242,8.615877 -0.52152,1.697658 -0.72598,5.567602 -0.39034,7.388192 0.86744,4.70528 3.34933,8.90414 6.70808,11.34875 2.557,1.86107 5.37261,3.14349 8.19504,3.73259 1.90446,0.3975 7.64428,0.30063 9.44801,-0.15946 z m -8.42105,-2.03072 c -3.27189,-0.50493 -7.28238,-2.75366 -9.65963,-5.41625 -2.93689,-3.28943 -4.33894,-7.7148 -3.78585,-11.949561 0.77395,-5.925803 4.05426,-10.141622 9.80473,-12.600929 4.338,-1.855237 10.5418,-1.738726 14.83076,0.278531 1.56955,0.738223 3.91261,2.439026 5.00928,3.636186 2.47278,2.699371 3.819,6.540859 4.00969,11.441763 0.0342,0.87884 -0.98661,4.51424 -1.64955,5.87454 -2.02959,4.16457 -5.86837,7.15243 -10.95994,8.53053 -1.02623,0.27776 -6.22048,0.41801 -7.59949,0.20519 z m 9.08858,-8.55195 c 0.1412,-0.10617 0.25674,-0.49425 0.25674,-0.86239 0,-0.59536 -0.27249,-0.93054 -2.4647,-3.03181 l -2.4647,-2.36245 v -5.856872 c 0,-5.178995 -0.0393,-5.897721 -0.33992,-6.209862 -0.42325,-0.439526 -1.25312,-0.455438 -1.74918,-0.03354 -0.34339,0.292058 -0.3756,0.704875 -0.3756,4.813114 0,2.473915 -0.0907,4.717757 -0.20171,4.99225 -0.11094,0.27423 -0.41489,0.57477 -0.67544,0.66787 -0.36362,0.12992 -0.48591,0.33931 -0.52616,0.90088 -0.0508,0.7096 0.0487,0.82549 3.31023,3.85268 1.84945,1.71659 3.54028,3.21725 3.75739,3.33481 0.40645,0.22008 1.02185,0.13457 1.47305,-0.20468 z M 113.77238,62.164222 c 1.49795,-0.712867 2.09712,-1.733951 1.88235,-3.207834 -0.25194,-1.728912 -1.58082,-2.849527 -3.37843,-2.848946 -2.00746,6.49e-4 -3.28947,1.204191 -3.28947,3.088135 0,1.361655 0.52683,2.167725 1.84534,2.823412 1.07669,0.535427 2.02216,0.582129 2.94021,0.145233 z M 67.619852,59.448233 c 1.01214,-0.508995 2.05402,-1.584279 2.57046,-2.652876 0.35764,-0.739995 0.37951,-1.596591 0.38377,-15.026685 0.005,-15.819147 0.0744,-14.996212 -1.38354,-16.402353 -1.22516,-1.181611 -2.44187,-1.494719 -5.80837,-1.494719 h -2.86777 v -1.544218 c 0,-1.716547 -0.34569,-2.316326 -1.33505,-2.316326 -0.98936,0 -1.33505,0.599779 -1.33505,2.316326 V 23.8716 h -9.42162 -9.42163 l -0.0971,-1.575989 c -0.0827,-1.342493 -0.16605,-1.628479 -0.56262,-1.930272 -0.60398,-0.459628 -1.06006,-0.44754 -1.72739,0.04578 -0.50333,0.372088 -0.54118,0.507074 -0.54118,1.930272 v 1.530208 l -2.82413,0.0042 c -2.3955,0.0036 -2.96442,0.06392 -3.7484,0.397434 -1.13279,0.481905 -1.96591,1.202558 -2.48351,2.148248 -0.37548,0.68602 -0.39197,1.327294 -0.39197,15.236461 0,14.165447 0.0101,14.539951 0.41417,15.324371 0.52376,1.016812 1.65027,2.081571 2.74332,2.592943 0.83836,0.392219 1.04557,0.39601 18.92211,0.346219 l 18.07447,-0.05034 z m -37.04317,-2.181885 c -0.36817,-0.210963 -0.85306,-0.666665 -1.07754,-1.012671 -0.39293,-0.605664 -0.40816,-0.990482 -0.4089,-10.328721 l -7.7e-4,-9.699616 h 19.51943 19.51943 l -0.0586,9.714841 -0.0586,9.714843 -0.57545,0.70883 c -1.1118,1.369516 0.0966,1.287584 -18.97791,1.286784 -16.81236,-7.05e-4 -17.22729,-0.0096 -17.88115,-0.38429 z m 9.20666,-3.675351 c 0.34136,-0.171695 0.39728,-0.414667 0.39728,-1.726299 0,-1.879717 -0.25188,-2.127453 -2.16306,-2.127453 -1.82451,0 -2.00377,0.184944 -1.9658,2.028128 0.0172,0.833166 0.13266,1.62973 0.25666,1.770144 0.27407,0.310354 2.88529,0.352044 3.47492,0.05548 z m 10.42039,-0.03181 c 0.15194,-0.14279 0.24647,-0.843521 0.24647,-1.826967 0,-1.884782 -0.11189,-1.994971 -2.02574,-1.994971 -1.68722,0 -1.8767,0.211875 -1.8767,2.098481 0,0.902938 0.0973,1.58326 0.24647,1.723457 0.32713,0.307435 3.08238,0.307435 3.4095,0 z m 10.50108,-0.04095 c 0.1324,-0.149921 0.29362,-0.838182 0.35827,-1.529469 0.10911,-1.166595 0.0795,-1.29261 -0.41162,-1.754202 -0.44812,-0.421139 -0.71336,-0.497316 -1.73161,-0.497316 -1.68773,0 -1.9145,0.209826 -1.99047,1.841761 -0.0922,1.979862 0.1201,2.21181 2.02416,2.21181 1.05039,0 1.58389,-0.08304 1.75127,-0.272584 z m -0.57028,-8.804542 c 0.88188,-0.230204 0.91669,-0.297583 0.97891,-1.894364 0.0665,-1.705428 -0.20804,-1.961334 -2.10379,-1.961334 -1.93955,0 -2.1923,0.221743 -2.1923,1.923296 0,1.576747 0.23141,1.897208 1.43774,1.990982 0.50834,0.03952 0.97047,0.08654 1.02696,0.104494 0.0565,0.01796 0.44009,-0.05543 0.85248,-0.163074 z m -20.06115,-0.308003 c 0.43102,-0.40507 0.39972,-2.859197 -0.0417,-3.274094 -0.42446,-0.398903 -3.40284,-0.381092 -3.75923,0.02248 -0.31609,0.357941 -0.28244,2.94854 0.0431,3.317168 0.3408,0.385917 3.33304,0.33372 3.75789,-0.06555 z m 10.02381,0.07156 c 0.45871,-0.323932 0.56227,-3.183213 0.12472,-3.443618 -0.38248,-0.227633 -3.08087,-0.217175 -3.46876,0.01345 -0.43689,0.259757 -0.43201,3.225675 0.006,3.485847 0.44895,0.266826 2.94046,0.225275 3.3383,-0.05567 z M 29.089472,30.835388 c 0,-2.990222 0.0138,-3.08906 0.50932,-3.642479 0.78443,-0.876122 1.4031,-1.024476 4.0177,-0.963425 l 2.3536,0.05496 0.0646,0.963738 c 0.0759,1.131016 0.48538,1.642129 1.31574,1.642129 1.11781,0 1.39241,-0.286847 1.39241,-1.454495 v -1.054858 h 9.55071 9.55072 v 0.935219 c 0,1.095849 0.41851,1.574134 1.37741,1.574134 0.82632,0 1.16121,-0.420351 1.2896,-1.618659 l 0.10577,-0.987208 h 2.87549 c 2.69537,0 2.91819,0.02862 3.55727,0.456999 0.37498,0.25135 0.76779,0.6696 0.87291,0.929446 0.10512,0.259845 0.19113,1.769724 0.19113,3.355286 v 2.882842 H 48.601682 29.089472 Z M 176.94935,53.799845 c 2.79421,-0.912205 4.54475,-1.991484 6.84764,-4.221856 1.73705,-1.682351 2.10024,-2.159206 3.0205,-3.965746 1.48356,-2.912334 1.74631,-4.057325 1.73332,-7.553145 -0.0144,-3.877007 -0.63512,-5.942655 -2.61013,-8.686223 -3.22612,-4.481561 -8.79166,-7.24165 -14.59247,-7.236771 -6.37266,0.0054 -12.07091,2.943241 -15.17974,7.826315 -2.29754,3.60878 -2.96477,9.536399 -1.52556,13.552995 1.56831,4.37688 5.49896,8.194333 10.26003,9.964551 2.39002,0.888632 3.67113,1.072199 7.03643,1.008226 2.86193,-0.0544 3.21798,-0.103323 5.00998,-0.688346 z m -9.3232,-1.927844 c -5.43494,-1.36969 -9.5184,-5.132424 -10.90543,-10.048873 -0.47006,-1.666148 -0.48117,-5.05079 -0.0223,-6.796696 1.31091,-4.987943 5.38636,-8.791953 10.92775,-10.199932 2.37026,-0.602243 5.90018,-0.44008 8.54455,0.392532 6.43448,2.025972 10.38196,7.390667 9.98419,13.568687 -0.23692,3.679688 -1.54521,6.663102 -3.91005,8.916429 -1.54191,1.469206 -3.6355,2.842454 -5.37606,3.526326 -2.54407,0.999567 -6.68221,1.286794 -9.24263,0.641527 z m 7.34821,-12.518839 c 2.79289,-2.632461 5.07799,-4.851762 5.07799,-4.931779 0,-0.08002 -0.13522,-0.391234 -0.30049,-0.691591 -0.30546,-0.555125 -0.69012,-0.785915 -1.30989,-0.785915 -0.18943,0 -2.32952,1.867102 -4.75573,4.149115 l -4.41131,4.149115 -1.85135,-1.722241 c -1.81578,-1.689156 -2.02861,-1.819439 -2.89668,-1.773179 -0.50184,0.02674 -0.87981,0.692901 -0.76995,1.357015 0.0444,0.268139 1.05513,1.427088 2.38389,2.733354 3.28664,3.231013 2.55081,3.437921 8.83352,-2.483894 z"
       id="path1" /></g></svg>
